 <svg
  width="1000"
  height="1000"
  viewBox="0 0 1000 1000"
  xmlns="http://www.w3.org/2000/svg"
>
  <defs />
  <g transform="translate(-350, -150) scale(1.7)">
    <path
      transform="matrix(3.088029114917651 0 0 3.088029114917651 -81.5362806270744 -122.82532240288556)"
      d="M 260.18698354398 164.775768286 C 255.650515062 161.2068428729 249.15174382466 161.63836818746 245.12698354398 165.775768286 L 230.57698354398 180.315768286 C 229.8429019394 181.05530321684 228.84399492401 181.4712311198 227.80198354398 181.4712311198 C 226.75997216395 181.4712311198 225.76106514856 181.05530321684 225.02698354398 180.315768286 L 222.55698354398 177.845768286 C 221.81744861314 177.11168668142 221.40152071018 176.11277966603 221.40152071018 175.070768286 C 221.40152071018 174.02875690597 221.81744861314 173.02984989058 222.55698354398 172.295768286 L 222.55698354398 172.295768286 C 226.47894390788 168.47238516798 227.09424255263 162.386828709 224.01698354398 157.855768286 C 222.12909573274 155.19892685518 219.16805763427 153.50706647617 215.92059763153 153.22970334426 C 212.67313762879 152.95234021235 209.4680785476 154.11755883937 207.15698354398 156.415768286 L 185.48698354398 178.085768286 C 184.8004393121 178.77336911127 183.86865111946 179.1597481778 182.89698354398 179.1597481778 C 181.9253159685 179.1597481778 180.99352777586 178.77336911127 180.30698354398 178.085768286 L 175.89698354398 173.675768286 C 175.20938271871 172.98922405412 174.82300365218 172.05743586148 174.82300365218 171.085768286 C 174.82300365218 170.11410071052 175.20938271871 169.18231251788 175.89698354398 168.495768286 L 228.19698354398 116.195768286 C 232.49889302064 111.86989140146 232.49889302064 104.88164517054 228.19698354398 100.555768286 L 228.19698354398 100.555768286 C 223.87110665944 96.25385880934 216.88286042852 96.25385880934 212.55698354398 100.555768286 L 187.31698354398 125.745768286 C 185.58410265297 127.47363279201 182.77986443499 127.47363279201 181.04698354398 125.745768286 L 177.90698354398 122.605768286 C 176.17911903797 120.87288739499 176.17911903797 118.06864917701 177.90698354398 116.335768286 L 187.02698354398 107.215768286 C 191.32889302064 102.88989140146 191.32889302064 95.90164517054 187.02698354398 91.575768286 L 187.02698354398 91.575768286 C 182.70110665944 87.27385880934 175.71286042852 87.27385880934 171.38698354398 91.575768286 L 115.64698354398 147.365768286 C 111.34507406732 151.69164517054 111.34507406732 158.67989140146 115.64698354398 163.005768286 L 115.64698354398 163.005768286 C 119.97286042852 167.30767776266 126.96110665944 167.30767776266 131.28698354398 163.005768286 L 164.44698354398 129.835768286 C 166.17986443499 128.10790377999 168.98410265297 128.10790377999 170.71698354398 129.835768286 L 173.85698354398 132.975768286 C 175.58484804999 134.70864917701 175.58484804999 137.51288739499 173.85698354398 139.245768286 L 135.97698354398 177.125768286 C 131.67507406732 181.45164517054 131.67507406732 188.43989140146 135.97698354398 192.765768286 L 135.97698354398 192.765768286 C 140.30286042852 197.06767776266 147.29110665944 197.06767776266 151.61698354398 192.765768286 L 163.48698354398 180.895768286 C 164.17352777586 180.20816746073 165.1053159685 179.8217883942 166.07698354398 179.8217883942 C 167.04865111946 179.8217883942 167.9804393121 180.20816746073 168.66698354398 180.895768286 L 173.07698354398 185.305768286 C 173.76458436925 185.99231251788 174.15096343578 186.92410071052 174.15096343578 187.895768286 C 174.15096343578 188.86743586148 173.76458436925 189.79922405412 173.07698354398 190.485768286 L 173.07698354398 190.485768286 C 168.94709037644 194.51801472212 168.51609040195 201.01318433763 172.07698354398 205.555768286 C 174.0619956567 207.96479157963 176.97034097381 209.42571856635 180.08801602079 209.57988931044 C 183.20569106778 209.73406005452 186.2439820216 208.56719749878 188.45698354398 206.365768286 L 209.76698354398 185.065768286 C 211.30084071722 183.53623995413 213.78312637074 183.53623995413 215.31698354398 185.065768286 L 217.78698354398 187.535768286 C 219.31651187585 189.06962545924 219.31651187585 191.55191111276 217.78698354398 193.085768286 L 189.78698354398 221.085768286 C 185.65263305504 225.11595965295 185.22140062109 231.61463243253 188.78698354398 236.155768286 C 190.76868105922 238.5656490342 193.67458641736 240.0283250375 196.79071951639 240.18441722694 C 199.90685261542 240.34050941638 202.94438053353 239.17554967983 205.15698354398 236.975768286 L 260.94698354398 181.185768286 C 263.1673820037 178.98020807384 264.35147557084 175.93849384904 264.20668691216 172.81220188991 C 264.06189825348 169.68590993078 262.60173321315 166.76665984624 260.18698354398 164.775768286 Z"
    />
    <path
      fill="#777777"
      transform="matrix(3.088029114917651 0 0 3.088029114917651 -81.5362806270744 -122.82532240288556)"
      d="M 243.83698354398 146.435768286 C 243.83698354398 152.55508331413 238.87629857211 157.515768286 232.75698354398 157.515768286 C 226.63766851585 157.515768286 221.67698354398 152.55508331413 221.67698354398 146.435768286 C 221.67698354398 140.31645325787 226.63766851585 135.355768286 232.75698354398 135.355768286 C 238.87629857211 135.355768286 243.83698354398 140.31645325787 243.83698354398 146.435768286 Z"
    />
    <path
      fill="#777777"
      transform="matrix(3.088029114917651 0 0 3.088029114917651 -81.5362806270744 -122.82532240288556)"
      d="M 136.45698354398 203.075768286 C 136.45698354398 209.19508331413 131.49629857211 214.155768286 125.37698354398 214.155768286 C 119.25766851585 214.155768286 114.29698354398 209.19508331413 114.29698354398 203.075768286 C 114.29698354398 196.95645325787 119.25766851585 191.995768286 125.37698354398 191.995768286 C 131.49629857211 191.995768286 136.45698354398 196.95645325787 136.45698354398 203.075768286 Z"
    />
  </g>
</svg>